# xmcd
#
# Track frame offsets:
#	150
#	10997
#	25635
#	38375
#	52452
#	61372
#	73889
#	89944
#	101138
#	112620
#	125657
#	140677
#
# Disc length: 2099 seconds
#
# Revision: 0
# Processed by: cddbd v1.5.2PL0 Copyright (c) Steve Scherf et al.
# Submitted via: EasyCDDAExtractor 16.0.6.1
#
DISCID=ae08310c
DTITLE=Συλλογικός δίσκος - Μεγ. Έλληνες συνθέτες-Χατζηνάσιος Γιώργος
DYEAR=2008
DGENRE=Ποικίλη
TTITLE0=Άνευ ερμηνευτού - Τα γαλάζια σου γράμματα [ορχηστρικό]
TTITLE1=Μαρινέλλα - Καμμιά φορά [Μιχ. Μπουρμπούλης]
TTITLE2=Νικολάου Φίλιππος - Τα τρία τελευταία μας λεπτά [Φίλ. Νικολάου]
TTITLE3=Μητροπάνος Δημήτρης - Η αγάπη χάθηκε [Μιχ. Μπουρμπούλης]
TTITLE4=Χριστιάνα - Γιαρέμ, γιαρέμ [Νίκος Γκάτσος]
TTITLE5=Μαρινέλλα - Να παίζει το τρανζίστορ [Μιχ. Μπουρμπούλης]
TTITLE6=Τσανακλίδου Τάνια - Ο ανθρωπάκος [Λ. Παπαδόπουλος]
TTITLE7=Μοσχολιού Βίκυ - Πικρό πουλί της ξενητειάς [Διον. Τζεφρώνης]
TTITLE8=Μαρινέλλα - Παιδί απ' την Ανάβυσσο [Μιχ. Μπουρμπούλης]
TTITLE9=Μητροπάνος Δημήτρης - Μην παραπονιέσαι τώρα [Μάνος Κουφιανάκης]
TTITLE10=Καλογιάννης Αντώνης - Άνοιξε το παράθυρο [Ερρίκος Θαλασσινός]
TTITLE11=Μαρινέλλα - Δε φταίμε εμείς [Νίκος Βρεττός]
EXTD=
EXTT0=
EXTT1=
EXTT2=
EXTT3=
EXTT4=
EXTT5=
EXTT6=
EXTT7=
EXTT8=
EXTT9=
EXTT10=
EXTT11=
PLAYORDER=
